<svg width="530" height="574" viewBox="0 0 530 574" fill="none" xmlns="http://www.w3.org/2000/svg">
<path fill-rule="evenodd" clip-rule="evenodd" d="M0 14C0 6.26805 6.26801 0 14 0H515.447C523.179 0 529.447 6.26801 529.447 14V515.447C529.447 523.179 523.179 529.447 515.447 529.447H14C6.26805 529.447 0 523.179 0 515.447V14ZM14 4C8.47716 4 4 8.47718 4 14V515.447C4 520.97 8.47718 525.447 14 525.447H515.447C520.97 525.447 525.447 520.97 525.447 515.447V14C525.447 8.47716 520.97 4 515.447 4H14Z" fill="black"/>
<path d="M113.085 528.403H387.62C388.773 517.912 346.721 294.825 297.324 223.108C291.716 214.969 243.71 209.047 226.087 229.292C132.734 336.5 110.83 525.833 113.085 528.403Z" fill="black"/>
<path d="M303.835 241.622C311.627 261.809 341.023 332.584 357 383.378C367.721 417.465 371.803 446.073 374.149 453.59C374.149 453.59 293.088 427.552 274.836 427.507C246.728 427.437 201.638 486.145 212.699 493.496C230.086 505.063 312.967 544.399 379.154 556.748C415.131 563.464 482.921 517.733 477.563 481.377C470.046 430.353 377.84 295.857 342.76 257.72C324.547 237.924 294.337 217.02 303.835 241.622Z" fill="#FF9581"/>
<path d="M482.504 492.163C480.806 528.916 434.831 559.856 408.165 561.49C362.178 564.278 224.222 524.103 224.222 524.103L277.848 420.791C277.848 420.791 371.72 452.654 374.104 453.551V453.513C373.277 450.777 350.143 363.845 339.806 335.039C339.255 333.449 338.614 331.822 338.011 330.111C335.038 322.132 330.956 311.596 326.444 300.215L326.399 300.132C323.9 293.832 321.259 287.244 318.664 280.746V280.707C307.327 252.542 296.279 225.735 296.279 225.735C312.082 228.331 327.687 236.636 353.308 263.526C378.878 290.384 485.311 431.532 482.504 492.163Z" fill="black"/>
<path d="M259.975 501.75C263.801 494.438 267.691 487.157 271.53 479.852C275.298 472.7 279.111 465.574 282.956 458.46C286.929 451.103 291.101 443.759 294.312 436.03C294.37 435.883 294.171 435.761 294.075 435.889C289.249 442.253 285.276 449.27 281.309 456.185C277.201 463.35 273.196 470.579 269.229 477.827C265.339 484.927 261.596 492.098 257.905 499.295C254.111 506.703 250.279 514.381 247.536 522.251C247.427 522.565 247.863 522.872 248.068 522.565C252.503 515.983 256.297 508.773 259.975 501.75Z" fill="#2B454E"/>
<path d="M402.814 468.797L374.149 453.596L374.104 453.558V453.519C373.277 450.783 350.143 363.851 339.806 335.045C339.255 333.456 338.614 331.828 338.011 330.117C335.038 322.138 330.956 311.603 326.444 300.221L402.814 468.797Z" fill="#1C1C1C"/>
<path d="M426.545 481.409C418.586 475.462 410.005 470.143 401.36 465.253C397.04 462.805 392.631 460.556 388.101 458.531C383.281 456.378 378.187 454.82 373.399 452.654C373.034 452.488 372.765 453.052 373.13 453.218C377.603 455.243 381.852 458.063 386.172 460.415C390.664 462.863 395.176 465.273 399.726 467.612C408.659 472.207 417.432 477.083 426.315 481.775C426.526 481.89 426.744 481.557 426.545 481.409Z" fill="#1C1C1C"/>
<path d="M405.672 459.153C398.476 459.249 355.039 447.649 348.714 453.609C310.16 489.952 297.971 482.633 289.762 487.369C226.234 523.917 141.398 566.854 111.118 567.123C65.1944 567.495 46.9045 528.954 54.5499 492.541C69.642 420.56 166.718 280.208 210.642 242.91C233.931 223.165 232.091 252.946 222.459 285.322C216.807 304.304 206.925 332.527 196.845 360.224C187.918 384.897 164.257 447.944 163.847 449.424V449.463C163.809 449.546 163.77 449.591 163.777 449.636C163.745 449.802 163.911 449.835 164.283 449.732C166.302 449.36 220.627 423.758 275.259 409.692C294.51 404.738 334.602 397.676 348.976 404.091C357.525 407.904 357.666 413.005 357.666 413.005C357.666 413.005 364.517 412.383 371.746 418.33C376.539 422.278 378.026 427.86 378.026 427.86C378.026 427.86 385.524 428.911 389.427 433.256C394.079 438.44 394.49 443.926 394.49 443.926C404.615 446.63 405.672 459.153 405.672 459.153Z" fill="white"/>
<path d="M341.504 411.486C335.711 411.569 330.059 412.409 324.368 413.408C323.983 413.479 323.996 414.075 324.406 414.03C329.994 413.415 335.653 413.287 341.267 413.101C346.849 412.915 352.52 412.793 358.102 412.909C358.134 412.909 358.141 412.851 358.109 412.845C352.54 411.928 347.169 411.403 341.504 411.486Z" fill="#1A2E35"/>
<path d="M377.866 427.527C367.92 424.797 359.993 423.284 347.502 424.848C347.099 424.899 347.131 425.495 347.528 425.469C359.397 424.733 367.138 425.937 377.847 427.738C377.968 427.764 377.975 427.559 377.866 427.527Z" fill="#1A2E35"/>
<path d="M394.381 443.593C384.409 439.491 376.732 438.209 365.664 438.209C365.273 438.209 365.145 438.786 365.549 438.825C376.168 439.837 383.935 441.362 394.233 444.041C394.49 444.105 394.624 443.695 394.381 443.593Z" fill="#1A2E35"/>
<path d="M272.606 410.326C267.838 410.948 263.07 412.351 258.405 413.498C253.432 414.722 248.471 416.075 243.601 417.683C233.847 420.9 224.382 424.758 215.045 429.013C214.686 429.18 214.878 429.731 215.263 429.597C224.773 426.264 234.379 423.143 243.992 420.118C248.721 418.632 253.419 417.049 258.129 415.511C262.961 413.928 267.992 412.729 272.741 410.929C273.061 410.807 272.965 410.275 272.606 410.326Z" fill="#1A2E35"/>
<path d="M234.61 420.624C244.665 417.222 249.209 417.202 249.209 417.202L306.366 513.721C306.366 513.721 148.935 570.398 116.616 573.711C84.2919 577.024 47.5198 551.57 46.8982 510.991C46.0266 453.955 139.033 316.986 185.822 264.02C207.265 239.744 232.264 222.114 238.641 226.094C246.171 230.791 232.495 261.315 225.286 284.085C211.982 326.118 164.296 449.732 164.296 449.732C164.296 449.732 222.633 424.681 234.61 420.624Z" fill="black"/>
<path d="M248.696 417.125C239.827 417.645 201.484 431 182.682 439.068C163.943 447.111 145.916 456.653 129.004 468.073C119.436 474.533 110.355 481.563 101.383 488.824C101.076 489.074 101.409 489.574 101.742 489.337C118.276 477.513 135.938 466.964 153.811 457.307C171.595 447.7 189.705 438.581 208.553 431.231C219.287 427.046 237.744 420.778 248.228 418.029C251.195 417.247 248.971 417.106 248.696 417.125Z" fill="#1C1C1C"/>
<path d="M210.95 332.725C208.553 336.596 206.124 340.441 204.073 344.517C203.977 344.709 203.887 344.901 203.791 345.094C206.835 335.833 209.726 326.547 212.494 317.197C212.667 316.621 211.712 316.313 211.494 316.871C197.966 351.131 185.412 385.807 173.236 420.573C169.826 430.295 166.84 440.119 163.745 449.937C163.636 450.277 164.193 450.45 164.334 450.129C168.051 441.709 171.794 433.345 175.197 424.777C178.599 416.215 181.759 407.558 184.957 398.919C190.545 383.814 195.87 368.632 201.004 353.374C202.612 350.701 204.234 348.035 205.752 345.318C207.963 341.351 209.783 337.198 211.629 333.052C211.828 332.597 211.2 332.322 210.95 332.725Z" fill="#1C1C1C"/>
<path d="M268.062 492.701C263.871 485.588 259.744 478.442 255.572 471.322C251.484 464.344 247.453 457.339 243.441 450.322C239.295 443.061 235.264 435.64 230.4 428.828C230.31 428.699 230.092 428.808 230.156 428.956C233.008 436.415 236.866 443.497 240.647 450.514C244.562 457.788 248.587 465.004 252.644 472.2C256.617 479.25 260.725 486.216 264.89 493.156C269.171 500.289 273.67 507.601 278.906 514.086C279.117 514.343 279.604 514.144 279.457 513.798C276.208 506.556 272.087 499.533 268.062 492.701Z" fill="#1C1C1C"/>
<path d="M308.641 513.926C303.899 504.576 296.523 495.393 291.063 486.498C290.857 486.158 290.351 486.511 290.55 486.85C295.51 495.194 300.054 504.185 304.796 512.67C283.174 521.597 260.218 529.557 238.167 537.369C215.538 545.392 192.762 552.993 169.672 559.645C156.766 563.362 143.84 567.393 130.856 570.802C130.049 571.013 130.266 571.68 131.093 571.52C154.452 567.123 177.388 560.375 200.004 553.198C223.068 545.879 245.831 537.702 268.485 529.236C281.232 524.475 309.026 514.683 308.641 513.926Z" fill="#1C1C1C"/>
<path d="M271.151 410.39C241.422 418.003 207.214 430.532 191.884 436.53C191.481 436.671 191.115 436.812 190.75 436.947C177.247 442.253 168.884 446.188 166.878 446.521C166.712 446.444 166.584 446.329 166.455 446.252V446.214C165.052 445.201 163.661 444.432 162.277 443.913C158.47 442.548 121.891 437.979 122.813 426.648C123.704 415.44 138.61 416.138 140.802 416.292C138.431 415.773 118.577 411.121 125.044 401.207C129.613 394.176 149.274 395.208 151.254 395.285C149.249 394.625 131.01 388.678 137.284 378.559C141.776 371.317 163.725 372.259 166.257 372.689C164.206 371.907 147.948 369.183 155.535 360.461C160.803 354.386 202.132 360.564 220.505 369.734C247.824 383.372 271.151 410.39 271.151 410.39Z" fill="white"/>
<path d="M191.884 436.531C191.481 436.672 191.115 436.813 190.75 436.947C184.406 432.019 160.399 419.305 141.539 416.889C140.373 416.741 140.296 416.068 141.533 416.126C164.821 417.183 185.758 430.898 191.884 436.531Z" fill="#1A2E35"/>
<path d="M152.152 396.035C178.183 401.2 189.949 406.949 212.334 421.169C212.648 421.368 213 420.906 212.699 420.676C191.833 405.058 178.849 397.323 152.376 395.375C151.177 395.285 150.96 395.798 152.152 396.035Z" fill="#1A2E35"/>
<path d="M167.058 373.227C192.032 379.866 205.195 385.621 225.311 401.899C225.785 402.283 226.369 401.7 225.933 401.271C206.976 382.885 190.596 375.598 167.295 372.535C165.706 372.33 165.488 372.811 167.058 373.227Z" fill="#1A2E35"/>
<path d="M292.107 273.075C277.316 278.394 248.587 258.124 236.148 240.475C235.302 239.257 235.738 225.434 235.469 208.605C235.27 198.397 234.802 187.028 233.629 176.691L300.265 185.086C300.265 185.086 296.349 207.484 298.503 225.498C298.701 227.004 299.009 228.388 299.432 229.689C299.477 229.882 299.56 230.112 299.605 230.381C301.842 238.29 306.404 267.923 292.107 273.075Z" fill="white"/>
<path fill-rule="evenodd" clip-rule="evenodd" d="M233.265 176.322L300.639 184.81L300.581 185.141L300.265 185.086C300.581 185.141 300.581 185.141 300.581 185.141L300.58 185.145L300.578 185.157L300.57 185.205C300.562 185.247 300.552 185.311 300.538 185.395C300.51 185.562 300.469 185.811 300.417 186.134C300.315 186.78 300.171 187.723 300.004 188.912C299.671 191.289 299.25 194.646 298.896 198.566C298.187 206.408 297.748 216.484 298.821 225.458C299.017 226.946 299.321 228.31 299.737 229.59L299.741 229.603L299.744 229.616C299.758 229.677 299.776 229.74 299.797 229.815C299.807 229.847 299.817 229.882 299.827 229.921C299.859 230.035 299.893 230.167 299.918 230.311C301.044 234.302 302.744 243.707 302.376 252.775C302.192 257.315 301.489 261.792 299.919 265.468C298.348 269.149 295.898 272.049 292.216 273.376C288.429 274.738 283.784 274.452 278.784 273.015C273.78 271.576 268.385 268.975 263.076 265.66C252.459 259.032 242.133 249.524 235.886 240.659L235.885 240.658C235.797 240.532 235.738 240.36 235.693 240.179C235.645 239.991 235.605 239.758 235.569 239.488C235.498 238.947 235.444 238.231 235.403 237.363C235.32 235.626 235.287 233.252 235.271 230.396C235.262 228.684 235.26 226.798 235.257 224.77C235.25 220.026 235.242 214.504 235.148 208.611C234.95 198.406 234.482 187.049 233.311 176.727L233.265 176.322ZM299.893 185.362L233.993 177.06C235.134 187.303 235.593 198.52 235.789 208.599L235.789 208.6C235.883 214.498 235.891 220.029 235.898 224.775C235.901 226.802 235.903 228.685 235.912 230.393C235.928 233.248 235.961 235.61 236.043 237.333C236.084 238.195 236.137 238.89 236.204 239.404C236.238 239.662 236.275 239.867 236.314 240.023C236.355 240.186 236.392 240.264 236.411 240.291C242.602 249.076 252.861 258.527 263.415 265.116C268.692 268.41 274.03 270.982 278.961 272.399C283.897 273.818 288.39 274.071 291.998 272.773C295.465 271.524 297.805 268.788 299.33 265.217C300.857 261.64 301.553 257.249 301.736 252.749C302.101 243.747 300.407 234.395 299.297 230.469L299.292 230.452L299.289 230.434C299.269 230.316 299.241 230.204 299.21 230.092C299.202 230.064 299.194 230.035 299.185 230.006C299.163 229.929 299.141 229.849 299.123 229.776C298.696 228.458 298.385 227.059 298.185 225.54L298.185 225.536C297.104 216.496 297.547 206.368 298.257 198.508C298.613 194.576 299.036 191.208 299.37 188.823C299.537 187.63 299.681 186.683 299.785 186.033C299.829 185.753 299.866 185.527 299.893 185.362Z" fill="black"/>
<path d="M299.631 230.375C299.759 230.804 299.887 231.272 299.97 231.83C260.077 230.138 244.902 212.598 235.084 195.769C234.783 189.354 234.36 182.85 233.629 176.691L300.271 185.073C300.271 185.073 296.337 207.49 298.515 225.498C298.689 226.998 299.028 228.363 299.458 229.689C299.502 229.856 299.541 230.119 299.631 230.375Z" fill="black"/>
<path fill-rule="evenodd" clip-rule="evenodd" d="M233.263 176.322L300.645 184.797L300.587 185.129L300.271 185.073C300.587 185.129 300.587 185.128 300.587 185.129L300.584 185.144L300.576 185.192C300.57 185.226 300.562 185.272 300.552 185.331C300.55 185.347 300.547 185.364 300.544 185.382C300.516 185.55 300.475 185.799 300.423 186.122C300.32 186.768 300.175 187.712 300.008 188.902C299.674 191.281 299.251 194.64 298.895 198.562C298.185 206.408 297.748 216.489 298.834 225.46L298.834 225.461C299.004 226.935 299.338 228.279 299.762 229.591L299.765 229.598L299.767 229.606C299.784 229.671 299.802 229.752 299.819 229.832C299.826 229.865 299.833 229.898 299.84 229.929C299.865 230.043 299.894 230.159 299.933 230.269L299.935 230.276L299.938 230.283C300.067 230.718 300.201 231.203 300.287 231.782L300.345 232.166L299.957 232.15C279.963 231.302 266.136 226.481 256.071 219.742C246.006 213.004 239.728 204.365 234.807 195.93L234.768 195.863L234.764 195.784C234.463 189.372 234.04 182.876 233.311 176.729L233.263 176.322ZM299.9 185.349L233.995 177.06C234.695 183.083 235.106 189.424 235.4 195.675C240.291 204.047 246.503 212.565 256.427 219.209C266.31 225.826 279.901 230.602 299.586 231.492C299.512 231.122 299.42 230.79 299.326 230.473C299.276 230.33 299.241 230.189 299.214 230.068C299.204 230.022 299.195 229.981 299.188 229.944C299.174 229.879 299.162 229.826 299.15 229.78C298.717 228.441 298.373 227.057 298.197 225.535C297.104 216.498 297.545 206.367 298.257 198.504C298.613 194.57 299.038 191.2 299.373 188.813C299.541 187.619 299.687 186.671 299.79 186.021C299.835 185.74 299.872 185.515 299.9 185.349Z" fill="black"/>
<path d="M206.316 106.793C202.702 130.716 224.536 195.077 242.992 207.426C269.748 225.325 308.699 221.678 322.682 190.623C336.236 160.522 306.296 77.1536 286.134 66.4322C256.437 50.6352 211.655 71.45 206.316 106.793Z" fill="white"/>
<path fill-rule="evenodd" clip-rule="evenodd" d="M236.808 66.8599C252.523 59.1442 271.365 57.8501 286.435 65.8665C289.065 67.2649 291.802 69.8155 294.547 73.2091C297.299 76.6109 300.09 80.898 302.817 85.8165C308.271 95.6538 313.496 108.061 317.662 121.065C321.827 134.069 324.941 147.692 326.163 159.964C327.382 172.214 326.725 183.205 323.267 190.886C316.177 206.631 302.75 215.426 287.736 218.014C272.736 220.599 256.144 216.995 242.636 207.959C237.89 204.783 233.004 198.332 228.409 190.171C223.8 181.987 219.439 172.001 215.774 161.664C212.108 151.326 209.131 140.62 207.297 130.993C205.466 121.381 204.763 112.787 205.683 106.697L206.316 106.793L205.683 106.697C208.39 88.7734 221.089 74.5776 236.808 66.8599ZM237.373 68.0104C221.942 75.5867 209.581 89.4698 206.95 106.889L206.316 106.793L206.95 106.889C206.063 112.761 206.733 121.183 208.556 130.753C210.376 140.307 213.334 150.95 216.982 161.236C220.63 171.522 224.962 181.438 229.525 189.542C234.102 197.669 238.866 203.894 243.349 206.893C256.596 215.756 272.857 219.278 287.518 216.751C302.164 214.226 315.204 205.671 322.098 190.36C325.416 182.99 326.1 172.273 324.887 160.09C323.677 147.93 320.587 134.397 316.441 121.456C312.296 108.515 307.102 96.1883 301.696 86.438C298.993 81.5626 296.243 77.3425 293.551 74.0152C290.853 70.68 288.244 68.2799 285.833 66.9981L285.833 66.998C271.206 59.2174 252.808 60.4322 237.373 68.0104Z" fill="black"/>
<path d="M267.934 135.74C267.845 135.587 267.665 136.061 267.729 136.234C269.312 140.528 270.408 145.718 266.96 148.468C266.851 148.551 266.941 148.769 267.075 148.698C271.645 146.43 270.126 139.554 267.934 135.74Z" fill="black"/>
<path d="M262.538 132.504C255.38 134.305 259.507 148.493 266.14 146.827C272.67 145.18 268.543 130.992 262.538 132.504Z" fill="black"/>
<path d="M294.671 127.691C294.658 127.512 295.074 127.8 295.119 127.98C296.26 132.414 298.311 137.304 302.713 137.605C302.848 137.612 302.906 137.843 302.752 137.862C297.695 138.592 295.036 132.075 294.671 127.691Z" fill="black"/>
<path d="M297.26 121.956C304.174 119.36 308.853 133.382 302.444 135.779C296.144 138.15 291.466 124.128 297.26 121.956Z" fill="black"/>
<path d="M255.053 127.64C256.841 126.589 258.322 125.327 259.988 124.103C261.865 122.725 263.5 121.821 264.326 119.54C264.769 118.316 263.935 116.592 262.788 116.047C260.11 114.785 257.392 115.9 255.066 117.463C252.541 119.162 251.029 121.116 250.144 124.026C249.286 126.845 252.688 129.024 255.053 127.64Z" fill="black"/>
<path d="M300.669 113.214C298.605 113.464 296.663 113.355 294.606 113.394C292.28 113.439 290.428 113.714 288.384 112.394C287.288 111.689 286.91 109.812 287.493 108.684C288.852 106.056 291.69 105.294 294.491 105.127C297.529 104.947 299.919 105.582 302.38 107.363C304.77 109.087 303.386 112.881 300.669 113.214Z" fill="black"/>
<path d="M278.104 176.486C279.457 177.21 280.918 178.319 282.552 177.992C284.116 177.678 285.711 176.467 286.955 175.512C287.076 175.416 287.262 175.524 287.211 175.685C286.564 177.703 284.468 179.459 282.328 179.696C280.238 179.927 278.752 178.492 277.739 176.813C277.598 176.575 277.906 176.383 278.104 176.486Z" fill="black"/>
<path d="M278.893 161.983C282.462 165.085 286.685 166.117 290.819 165.732C292.665 165.572 294.523 165.098 296.273 164.412C296.625 164.303 296.965 164.162 297.266 163.996C297.574 163.861 297.856 163.739 298.189 163.566C298.682 163.342 298.842 162.836 298.785 162.323L298.772 162.291C298.721 162.131 298.682 162.003 298.599 161.855C298.599 161.855 298.599 161.855 298.593 161.823L298.471 161.439C297.58 158.029 295.754 152.979 295.754 152.979C297.17 153.236 304.303 154.242 303.687 152.499C298.554 138.118 292.851 122.122 284.705 108.895C284.462 108.447 283.757 108.774 283.936 109.241C288.32 123.257 295.145 136.407 299.772 150.422C297.535 150.243 293.844 149.782 292.081 150.333C291.639 150.608 295.786 160.029 296.061 161.592C296.061 161.592 296.08 161.657 296.08 161.766C290.608 164.149 285.82 163.675 279.188 161.464C278.79 161.311 278.527 161.708 278.893 161.983Z" fill="black"/>
<path opacity="0.2" d="M213.34 152.133C217.115 149.044 221.883 133.215 224.1 126.679C226.401 119.886 219.575 92.3483 217.345 84.1582C211.712 90.5155 207.745 98.289 206.348 107.043C204.746 117.008 207.848 134.67 213.34 152.133Z" fill="black"/>
<path d="M276.342 92.0726C273.144 98.9682 266.665 103.903 259.065 104.813C251.663 105.697 243.236 102.833 238.724 96.6996C238.59 96.5201 238.308 96.7252 238.442 96.911C243.268 103.461 250.939 107.793 259.257 106.594C267.063 105.466 274.138 99.6924 276.842 92.2969C276.957 91.9637 276.49 91.7522 276.342 92.0726Z" fill="#1A2E35"/>
<path d="M239.397 46.0917C227.202 49.892 217.89 59.9213 215.807 69.5725C214.538 75.4363 215.615 80.7105 217.948 85.722C218.044 85.9271 218.467 85.754 218.39 85.5425C215.295 77.4358 216.679 66.7912 223.914 58.4281C230.867 50.3982 241.723 45.406 252.624 46.3096C258.315 46.7774 263.41 48.841 266.685 52.199C267.05 52.5771 267.889 52.0196 267.562 51.6223C262.019 44.919 250.433 42.6568 239.397 46.0917Z" fill="#1A2E35"/>
<path d="M318.318 52.2119C314.646 46.7262 308.936 42.7594 302.604 40.9778C293.735 38.4785 285.417 41.6187 277.22 44.8998C276.996 44.9895 277.137 45.3356 277.355 45.2459C284.346 42.471 291.594 40.0678 299.182 41.5482C305.366 42.7594 311.205 46.0598 315.21 50.9559C323.528 61.1198 322.951 76.8527 313.723 86.2476C308.5 91.5666 301.002 94.5786 293.555 94.3351C293.261 94.3287 293.177 94.7773 293.479 94.7965C307.199 95.604 320.228 85.7092 322.413 71.995C323.496 65.2276 322.157 57.9347 318.318 52.2119Z" fill="#1A2E35"/>
<path d="M206.169 120.488C206.169 120.488 188.283 101.814 194.441 86.3308C197.928 77.5575 216.538 73.3215 216.538 73.3215C216.538 73.3215 219.467 61.1068 233.681 53.3333C248.042 45.4829 268.825 49.2895 268.825 49.2895C268.825 49.2895 281.046 36.825 296.907 40.7726C319.023 46.2775 324.835 75.9554 308.301 90.695C296.689 101.045 275.054 94.2901 275.054 94.2901C273.362 95.0271 258.43 110.959 240.294 98.7376C240.294 98.7376 232.008 111.689 220.14 107.601C220.146 107.607 217.935 119.001 206.169 120.488Z" fill="black"/>
<path d="M299.413 228.972L285.237 268.185L235.635 221.377L222.696 237.495C222.696 237.495 272.35 312.974 272.51 309.469L287.089 275.741L310.826 297.914L306.77 240.129L299.413 228.972Z" fill="#EDEFEF"/>
<path d="M310.442 269.236C309.449 259.72 308.718 250.1 307.289 240.641C307.238 240.308 306.706 240.174 306.635 240.577C305.072 249.863 309.051 286.244 309.346 294.992C309.314 294.96 309.276 294.928 309.244 294.896C308.25 293.935 287.282 275.427 287.089 275.735C283.853 281.124 273.151 305.688 272.439 307.912C264.589 295.921 234.572 252.388 225.388 241.116C225.125 240.789 224.619 241.084 224.831 241.468C231.848 254.176 271.6 312.827 272.17 312.635C272.574 312.923 285.891 282.662 287.403 276.984C290.986 281.054 312.243 302.035 312.256 300.612C312.358 291.032 311.429 278.766 310.442 269.236Z" fill="#1C1C1C"/>
<path d="M228.394 158.612C228.394 158.612 209.905 139.797 201.125 146.737C192.346 153.678 208.745 182.702 220.812 185.022C232.88 187.342 235.244 176.217 235.244 176.217L228.394 158.612Z" fill="white"/>
<path fill-rule="evenodd" clip-rule="evenodd" d="M228.85 158.163C228.851 158.163 228.851 158.163 228.394 158.612L228.85 158.163L228.943 158.257L235.911 176.162L235.871 176.35L235.244 176.216C235.871 176.35 235.871 176.349 235.871 176.35L235.87 176.354L235.868 176.363L235.862 176.392C235.856 176.417 235.848 176.452 235.837 176.497C235.814 176.585 235.781 176.712 235.734 176.871C235.641 177.188 235.494 177.634 235.28 178.16C234.852 179.21 234.148 180.591 233.044 181.902C230.806 184.558 226.969 186.858 220.691 185.651C217.483 185.034 214.083 182.674 210.953 179.486C207.808 176.281 204.867 172.168 202.587 167.915C200.309 163.667 198.67 159.24 198.165 155.405C197.664 151.599 198.263 148.184 200.728 146.235C203.145 144.324 206.186 144.231 209.255 145.045C212.322 145.86 215.525 147.605 218.409 149.54C221.3 151.479 223.909 153.634 225.792 155.301C226.735 156.135 227.498 156.849 228.026 157.355C228.29 157.608 228.495 157.809 228.635 157.947C228.705 158.016 228.758 158.07 228.794 158.106L228.836 158.148L228.847 158.159L228.85 158.162L228.85 158.163ZM234.574 176.261L227.845 158.969C227.815 158.939 227.778 158.902 227.733 158.858C227.598 158.724 227.397 158.528 227.139 158.28C226.621 157.784 225.871 157.082 224.943 156.261C223.085 154.617 220.523 152.501 217.695 150.604C214.86 148.703 211.794 147.046 208.926 146.284C206.058 145.523 203.496 145.681 201.523 147.24C199.599 148.761 198.954 151.577 199.436 155.237C199.914 158.869 201.483 163.144 203.716 167.309C205.947 171.47 208.819 175.481 211.868 178.588C214.933 181.711 218.108 183.849 220.933 184.392C226.723 185.505 230.102 183.403 232.064 181.076C233.058 179.896 233.7 178.641 234.093 177.677C234.289 177.196 234.421 176.791 234.504 176.509C234.534 176.41 234.556 176.327 234.574 176.261Z" fill="black"/>
<path d="M206.034 154.934C205.849 154.946 205.855 155.209 206.028 155.248C214.532 157.138 219.967 163.816 224.19 170.981C221.325 168.43 217.833 167.36 214.353 170.84C214.173 171.025 214.423 171.314 214.641 171.23C217.788 169.987 220.236 170.154 222.876 172.397C224.747 173.986 226.208 176.146 227.682 178.094C228.176 178.741 229.4 178.145 228.99 177.37C228.958 177.312 228.926 177.254 228.894 177.197C227.381 167.014 217.108 154.126 206.034 154.934Z" fill="#1A2E35"/>
</svg>
